<svg height="682.66669pt" viewBox="-21 -21 682.66669 682.66669" width="682.66669pt" xmlns="http://www.w3.org/2000/svg"><path d="m226.25 227.5v187.5h187.5v-187.5zm112.5 107.25v42.75h-37.5v-42.75c-11.25-6.375-18.75-18.375-18.75-32.25 0-20.625 16.875-37.5 37.5-37.5s37.5 16.875 37.5 37.5c0 13.875-7.5 25.875-18.75 32.25zm0 0"/><path d="m640 227.5v-112.5h-37.5v37.5h-76.25v-37.5h-37.5v-77.5h37.5v-37.5h-112.5v37.5h37.5v77.5h-112.5v-77.5h37.5v-37.5h-112.5v37.5h37.5v77.5h-112.5v-77.5h37.5v-37.5h-112.5v37.5h37.5v77.5h-37.5v37.5h-76.25v-37.5h-37.5v112.5h37.5v-37.5h76.25v112.5h-76.25v-37.5h-37.5v112.5h37.5v-37.5h76.25v112.5h-76.25v-37.5h-37.5v112.5h37.5v-37.5h76.25v37.5h37.5v75h-37.5v37.5h112.5v-37.5h-37.5v-75h112.5v75h-37.5v37.5h112.5v-37.5h-37.5v-75h112.5v75h-37.5v37.5h112.5v-37.5h-37.5v-75h37.5v-37.5h76.25v37.5h37.5v-112.5h-37.5v37.5h-76.25v-112.5h76.25v37.5h37.5v-112.5h-37.5v37.5h-76.25v-112.5h76.25v37.5zm-188.75 225h-262.5v-262.5h262.5zm0 0"/></svg>